Coordinates
version=1
nRows=11
nColumns=63
inDegrees=yes

Units are S.I. units (second, meters, Newtons, ...)
If the header above contains a line with 'inDegrees', this indicates whether rotational values are in degrees (yes) or radians (no).

endheader
time	pelvis_tilt	pelvis_list	pelvis_rotation	pelvis_tx	pelvis_ty	pelvis_tz	hip_flexion_r	hip_adduction_r	hip_rotation_r	knee_angle_r	knee_angle_r_beta	ankle_angle_r	subtalar_angle_r	mtp_angle_r	hip_flexion_l	hip_adduction_l	hip_rotation_l	knee_angle_l	knee_angle_l_beta	ankle_angle_l	subtalar_angle_l	mtp_angle_l	L5_S1_Flex_Ext	L5_S1_Lat_Bending	L5_S1_axial_rotation	L4_L5_Flex_Ext	L4_L5_Lat_Bending	L4_L5_axial_rotation	L3_L4_Flex_Ext	L3_L4_Lat_Bending	L3_L4_axial_rotation	L2_L3_Flex_Ext	L2_L3_Lat_Bending	L2_L3_axial_rotation	L1_L2_Flex_Ext	L1_L2_Lat_Bending	L1_L2_axial_rotation	L1_T12_Flex_Ext	L1_T12_Lat_Bending	L1_T12_axial_rotation	Abs_r3	Abs_r2	Abs_r1	Abs_t1	Abs_t2	neck_flexion	neck_bending	neck_rotation	arm_flex_r	arm_add_r	arm_rot_r	elbow_flex_r	pro_sup_r	wrist_flex_r	wrist_dev_r	arm_flex_l	arm_add_l	arm_rot_l	elbow_flex_l	pro_sup_l	wrist_flex_l	wrist_dev_l
      3.15254237	     -3.46199113	      1.12346401	     83.37586124	      0.37902211	      0.88793364	      0.61338657	     -1.44170411	     -1.52280348	     19.45988404	      1.72064272	      0.03003088	     30.47812044	    -13.23737076	      0.00000000	     -0.83158258	     -1.12760376	    -14.41214363	      6.14687715	      0.10728324	     35.43552957	     15.09804208	      0.00000000	     -0.35614640	     -0.86383977	     -0.28916073	     -0.66139947	     -1.14890689	     -0.30723328	     -0.58511292	     -2.10034001	     -0.30723328	     -0.40703972	     -2.10034001	     -0.25301564	     -0.33071754	     -1.76154205	     -0.23494309	     -0.20350205	     -1.33808780	     -0.21687055	     -2.54391810	     -9.77192822	     -1.60822524	      0.00000000	      0.00000000	     25.83514476	      3.93019813	     -2.67568737	     -4.73664809	    -19.21152201	      0.58457250	    148.46858537	     73.91329732	     45.23442566	      7.53575717	     12.17438650	    -16.32646383	    120.51368238	      9.66776944	      4.56737519	     -5.24375849	    -14.09690273
      3.16949153	     -3.30762632	      1.46527407	     83.19270051	      0.37921919	      0.88803044	      0.61310456	     -1.71024166	     -1.44293957	     16.85771025	      1.85695602	      0.03241000	     31.65199031	     -9.35039093	      0.00000000	     -1.36316156	     -1.15777326	    -13.47054838	      5.75626798	      0.10046583	     35.11758160	     13.74622252	      0.00000000	     -0.40114305	     -0.83780051	     -0.32825941	     -0.74496275	     -1.11427467	     -0.34877562	     -0.65903791	     -2.03702815	     -0.34877562	     -0.45846639	     -2.03702815	     -0.28722698	     -0.37250143	     -1.70844279	     -0.26671077	     -0.22921314	     -1.29775298	     -0.24619456	     -2.86532466	     -9.47736689	     -1.82568035	      0.00000000	      0.00000000	     25.14249111	      4.03571930	     -2.25005154	     -4.56181402	    -19.81522386	      2.36545711	    147.92903653	     70.76955172	     45.25043327	      7.38311612	     11.96877183	    -16.39724767	    117.33847168	     10.06647686	      7.37852970	     -6.40134512	    -14.17050938
      3.18644068	     -3.43504513	      1.65823795	     82.82391098	      0.37991661	      0.88795525	      0.61276205	     -1.98782014	     -1.57728040	     20.45477974	      1.62792666	      0.02841268	     30.54754485	    -13.89935757	      0.00000000	     -1.63570777	     -1.00631635	    -14.10264767	      5.62535628	      0.09818099	     35.06198013	     14.02981608	      0.00000000	     -0.40754882	     -0.84522417	     -0.34778057	     -0.75685892	     -1.12414814	     -0.36951686	     -0.66956196	     -2.05507804	     -0.36951686	     -0.46578755	     -2.05507804	     -0.30430800	     -0.37844984	     -1.72358112	     -0.28257172	     -0.23287340	     -1.30925223	     -0.26083543	     -2.91108050	     -9.56134481	     -1.93425122	      0.00000000	      0.00000000	     24.40065868	      4.09301014	     -1.67418163	     -4.15328311	    -20.05523696	      4.45307758	    147.66994502	     64.69893723	     45.74353798	     11.57601899	     11.78538503	    -16.53766558	    117.23180112	     10.25651535	      5.93436474	     -5.86734996	    -14.55821154
      3.20338983	     -3.47754826	      1.94638545	     82.57109516	      0.38041268	      0.88802504	      0.61244003	     -2.29660350	     -1.67395361	     20.55300853	      1.64852314	      0.02877216	     30.68572772	    -13.57411028	      0.00000000	     -2.03655346	     -0.90289290	    -14.20485519	      5.39781695	      0.09420968	     35.02895021	     13.85103761	      0.00000000	     -0.42856998	     -0.84471093	     -0.38907187	     -0.79589730	     -1.12346554	     -0.41338887	     -0.70409761	     -2.05383016	     -0.41338887	     -0.48981262	     -2.05383016	     -0.34043789	     -0.39797008	     -1.72253453	     -0.31612090	     -0.24488488	     -1.30845724	     -0.29180391	     -3.06123248	     -9.55553902	     -2.16390104	      0.00000000	      0.00000000	     23.98113168	      4.04327635	     -1.31133192	     -3.94719678	    -20.50064071	      6.76167333	    147.55066678	     61.11270316	     44.47840617	     13.11360740	     11.55262436	    -16.59550570	    116.82244970	     10.37429283	      5.38436944	     -5.85799858	    -14.89771025
      3.22033898	     -3.49876007	      2.24595510	     82.20310993	      0.38102902	      0.88817671	      0.61215126	     -2.60977007	     -1.75349384	     20.88682248	      1.66066874	      0.02898414	     30.73851701	    -13.42809788	      0.00000000	     -2.50901784	     -0.77987631	    -13.97979089	      5.03447889	      0.08786823	     34.98063710	     13.21283074	      0.00000000	     -0.44249168	     -0.84041282	     -0.42951160	     -0.82175130	     -1.11774905	     -0.45635607	     -0.72696959	     -2.04337973	     -0.45635607	     -0.50572374	     -2.04337973	     -0.37582265	     -0.41089778	     -1.71376982	     -0.34897817	     -0.25283975	     -1.30179946	     -0.32213370	     -3.16067384	     -9.50691789	     -2.38881464	      0.00000000	      0.00000000	     23.99617473	      3.91321248	     -0.80409490	     -3.73865321	    -20.93975339	      9.28784583	    147.57859610	     57.72674390	     42.36542455	     14.70316697	     11.20724508	    -16.77954657	    115.04022624	     10.79951326	      5.86000786	     -6.00994386	    -15.14571541
      3.23728814	     -3.71150737	      2.55148622	     82.01785558	      0.38151901	      0.88848858	      0.61207855	     -2.92137039	     -2.02756115	     21.13880490	      1.62672348	      0.02839168	     30.74840624	    -13.48757690	      0.00000000	     -2.89210023	     -0.49832149	    -13.95745678	      4.77427078	      0.08332674	     34.98498233	     13.18514935	      0.00000000	     -0.45590821	     -0.85957023	     -0.52297582	     -0.84666713	     -1.14322840	     -0.55566181	     -0.74901160	     -2.08995905	     -0.55566181	     -0.52105749	     -2.08995905	     -0.45760385	     -0.42335636	     -1.75283560	     -0.42491786	     -0.26050595	     -1.33147428	     -0.39223187	     -3.25650675	     -9.72363031	     -2.90863464	      0.00000000	      0.00000000	     24.48594496	      3.73450618	     -0.24403831	     -3.52713235	    -21.17307231	     11.81333230	    147.60206452	     57.03251929	     40.05560378	     14.43290587	     10.94692175	    -17.09873552	    114.47862902	     11.31646232	      5.35774867	     -5.98361026	    -15.37230799
      3.25423729	     -3.63683760	      2.75524764	     81.75128452	      0.38184312	      0.88865192	      0.61180547	     -3.16380741	     -1.99947970	     21.48061521	      1.61688860	      0.02822003	     30.68494399	    -13.60910700	      0.00000000	     -3.22698801	     -0.50397115	    -13.46413356	      4.52538480	      0.07898286	     35.11119618	     12.66660345	      0.00000000	     -0.45158290	     -0.83020165	     -0.64353875	     -0.83863461	     -1.10416819	     -0.68375992	     -0.74190555	     -2.01855229	     -0.68375992	     -0.51611410	     -2.01855229	     -0.56309640	     -0.41933988	     -1.69294720	     -0.52287523	     -0.25803447	     -1.28598235	     -0.48265406	     -3.22561151	     -9.39140710	     -3.57916946	      0.00000000	      0.00000000	     25.17912643	      3.82060352	      1.30782377	     -3.42389969	    -21.83522991	     14.81525074	    147.90949018	     56.84085436	     35.24878167	     13.67691381	     10.39677225	    -17.21606128	    113.21041783	     11.74868994	      5.44953904	     -6.02856297	    -15.57591645
      3.27118644	     -3.81302644	      2.83405698	     81.26112284	      0.38237312	      0.88883408	      0.61182129	     -3.18611048	     -2.22019299	     21.63236857	      1.65683476	      0.02891722	     30.63374663	    -13.51052419	      0.00000000	     -3.45533941	     -0.23921025	    -13.33430204	      4.16544429	      0.07270072	     35.08727695	     12.42849614	      0.00000000	     -0.43355880	     -0.82928296	     -0.72789459	     -0.80516205	     -1.10294633	     -0.77338800	     -0.71229376	     -2.01631858	     -0.77338800	     -0.49551436	     -2.01631858	     -0.63690777	     -0.40260270	     -1.69107380	     -0.59141435	     -0.24773550	     -1.28455930	     -0.54592094	     -3.09686717	     -9.38101465	     -4.04833134	      0.00000000	      0.00000000	     26.16888306	      3.34912194	      2.26594054	     -3.06464163	    -22.06156492	     17.35357426	    147.91731044	     56.95080455	     33.28238301	     13.19138140	      9.97412642	    -17.42798944	    112.97874346	     12.14326272	      5.57828845	     -6.13729739	    -15.88655823
      3.28813559	     -3.82168554	      3.02847423	     80.64685722	      0.38281795	      0.88896861	      0.61096840	     -3.41925336	     -2.32044261	     21.87834341	      1.67576397	      0.02924760	     30.64435907	    -13.39948821	      0.00000000	     -4.42062657	      0.24293904	     -4.94787120	      2.48600790	      0.04338902	     33.04982189	      1.62290436	      0.00000000	     -0.42394199	     -0.79606894	     -0.79876467	     -0.78730266	     -1.05877169	     -0.84868746	     -0.69649429	     -1.93556202	     -0.84868746	     -0.48452330	     -1.93556202	     -0.69891909	     -0.39367253	     -1.62334378	     -0.64899629	     -0.24224045	     -1.23311079	     -0.59907350	     -3.02817521	     -9.00529107	     -4.44248946	      0.00000000	      0.00000000	     26.76204547	      3.29585681	      4.06731770	     -2.87905113	    -23.66700443	     21.61952415	    148.28809400	     62.75184546	     24.92232872	      5.92509790	      9.12447022	    -17.48837944	    109.90625258	     12.60105953	      7.34081628	     -6.43507819	    -16.03830685
      3.30508475	     -3.91500769	      2.93175275	     80.17460503	      0.38321840	      0.88908441	      0.61081707	     -3.27521220	     -2.43037143	     21.82577073	      1.77356398	      0.03095453	     30.57573712	    -13.17150961	      0.00000000	     -4.43930610	      0.37925698	     -4.56667170	      2.26814316	      0.03958657	     32.88220870	      1.04456048	      0.00000000	     -0.39054298	     -0.77796806	     -0.85500277	     -0.72527736	     -1.03469752	     -0.90844044	     -0.64162306	     -1.89155155	     -0.90844044	     -0.44635157	     -1.89155155	     -0.74812742	     -0.36265821	     -1.58643247	     -0.69468975	     -0.22315626	     -1.20507253	     -0.64125208	     -2.78960943	     -8.80053032	     -4.75526890	      0.00000000	      0.00000000	     27.24321534	      3.09362136	      5.24797537	     -2.36948996	    -24.34620739	     24.48495516	    148.27120607	     62.83736168	     22.26282058	      3.89754613	      8.58925790	    -17.32765053	    109.93776329	     12.36773184	      7.27532452	     -6.22622161	    -16.39829013
      3.32203390	     -4.07422743	      2.77183350	     79.77795847	      0.38364561	      0.88905470	      0.61042447	     -3.07948659	     -2.59263756	     21.50236708	      1.87046118	      0.03264571	     30.64086687	    -12.63700474	      0.00000000	     -4.55591026	      0.64126057	     -0.82868733	      1.66055647	      0.02898218	     31.66541445	     -3.98473116	      0.00000000	     -0.34704880	     -0.76335224	     -0.86561995	     -0.64450432	     -1.01525848	     -0.91972120	     -0.57016647	     -1.85601464	     -0.91972120	     -0.39664207	     -1.85601464	     -0.75741746	     -0.32226951	     -1.55662789	     -0.70331621	     -0.19830368	     -1.18243262	     -0.64921497	     -2.47893484	     -8.63519322	     -4.81431850	      0.00000000	      0.00000000	     27.50024405	      2.30221267	      6.01227709	     -1.98938318	    -25.62206522	     28.26963326	    148.43121816	     69.70356823	     13.98434643	     -3.65310759	      8.14987534	    -17.06710569	    109.83590317	     12.09247814	      7.08595649	     -5.92939634	    -16.48461376
